<svg xmlns="http://www.w3.org/2000/svg" xmlns:xlink="http://www.w3.org/1999/xlink" width="532" zoomAndPan="magnify" viewBox="0 0 398.88 162.749997" height="217" preserveAspectRatio="xMidYMid meet" version="1.0"><defs><g/><clipPath id="fe8a567158"><path d="M 0.246094 0 L 398.515625 0 L 398.515625 162.5 L 0.246094 162.5 Z M 0.246094 0 " clip-rule="nonzero"/></clipPath><clipPath id="b36e49e38b"><path d="M 139.285156 6 L 213 6 L 213 80 L 139.285156 80 Z M 139.285156 6 " clip-rule="nonzero"/></clipPath><clipPath id="c294a8a745"><path d="M 183 17 L 258.921875 17 L 258.921875 89.863281 L 183 89.863281 Z M 183 17 " clip-rule="nonzero"/></clipPath><clipPath id="d32fa797fb"><path d="M 183 17 L 244 17 L 244 89.863281 L 183 89.863281 Z M 183 17 " clip-rule="nonzero"/></clipPath></defs><g clip-path="url(#fe8a567158)"><path fill="#ffffff" d="M 0.246094 0 L 398.632812 0 L 398.632812 162.5 L 0.246094 162.5 Z M 0.246094 0 " fill-opacity="1" fill-rule="nonzero"/></g><g fill="#8790a2" fill-opacity="1"><g transform="translate(104.177057, 155.456352)"><g><path d="M 1.171875 -8.953125 L 4.84375 -8.953125 C 6.1875 -8.953125 7.296875 -8.53125 8.171875 -7.6875 C 9.046875 -6.84375 9.484375 -5.769531 9.484375 -4.46875 C 9.484375 -3.175781 9.039062 -2.109375 8.15625 -1.265625 C 7.28125 -0.421875 6.164062 0 4.8125 0 L 1.171875 0 Z M 2.6875 -7.59375 L 2.6875 -1.359375 L 4.890625 -1.359375 C 5.765625 -1.359375 6.492188 -1.648438 7.078125 -2.234375 C 7.660156 -2.816406 7.953125 -3.5625 7.953125 -4.46875 C 7.953125 -5.375 7.648438 -6.117188 7.046875 -6.703125 C 6.453125 -7.296875 5.710938 -7.59375 4.828125 -7.59375 Z M 2.6875 -7.59375 "/></g></g></g><g fill="#8790a2" fill-opacity="1"><g transform="translate(116.324522, 155.456352)"><g><path d="M 2.6875 0 L 1.171875 0 L 1.171875 -8.953125 L 2.6875 -8.953125 Z M 2.6875 0 "/></g></g></g><g fill="#8790a2" fill-opacity="1"><g transform="translate(122.417936, 155.456352)"><g><path d="M 5.140625 -9 C 5.773438 -9 6.390625 -8.875 6.984375 -8.625 C 7.585938 -8.382812 8.109375 -8.046875 8.546875 -7.609375 L 7.671875 -6.515625 C 7.335938 -6.859375 6.945312 -7.132812 6.5 -7.34375 C 6.0625 -7.550781 5.617188 -7.65625 5.171875 -7.65625 C 4.273438 -7.65625 3.515625 -7.347656 2.890625 -6.734375 C 2.273438 -6.128906 1.96875 -5.382812 1.96875 -4.5 C 1.96875 -3.613281 2.273438 -2.863281 2.890625 -2.25 C 3.515625 -1.644531 4.273438 -1.34375 5.171875 -1.34375 C 6.097656 -1.34375 6.929688 -1.695312 7.671875 -2.40625 L 8.5625 -1.40625 C 8.101562 -0.957031 7.566406 -0.597656 6.953125 -0.328125 C 6.335938 -0.0664062 5.71875 0.0625 5.09375 0.0625 C 3.78125 0.0625 2.675781 -0.375 1.78125 -1.25 C 0.882812 -2.125 0.4375 -3.203125 0.4375 -4.484375 C 0.4375 -5.765625 0.890625 -6.835938 1.796875 -7.703125 C 2.703125 -8.566406 3.816406 -9 5.140625 -9 Z M 5.140625 -9 "/></g></g></g><g fill="#8790a2" fill-opacity="1"><g transform="translate(133.567058, 155.456352)"><g><path d="M 7.296875 -7.59375 L 4.453125 -7.59375 L 4.453125 0 L 2.9375 0 L 2.9375 -7.59375 L 0.109375 -7.59375 L 0.109375 -8.953125 L 7.296875 -8.953125 Z M 7.296875 -7.59375 "/></g></g></g><g fill="#8790a2" fill-opacity="1"><g transform="translate(143.205868, 155.456352)"><g><path d="M 2.6875 0 L 1.171875 0 L 1.171875 -8.953125 L 2.6875 -8.953125 Z M 2.6875 0 "/></g></g></g><g fill="#8790a2" fill-opacity="1"><g transform="translate(149.299282, 155.456352)"><g><path d="M 1.796875 -7.703125 C 2.710938 -8.566406 3.835938 -9 5.171875 -9 C 6.515625 -9 7.644531 -8.566406 8.5625 -7.703125 C 9.476562 -6.835938 9.9375 -5.765625 9.9375 -4.484375 C 9.9375 -3.203125 9.476562 -2.125 8.5625 -1.25 C 7.644531 -0.375 6.515625 0.0625 5.171875 0.0625 C 3.835938 0.0625 2.710938 -0.375 1.796875 -1.25 C 0.890625 -2.125 0.4375 -3.203125 0.4375 -4.484375 C 0.4375 -5.765625 0.890625 -6.835938 1.796875 -7.703125 Z M 5.203125 -7.640625 C 4.304688 -7.640625 3.539062 -7.332031 2.90625 -6.71875 C 2.28125 -6.113281 1.96875 -5.363281 1.96875 -4.46875 C 1.96875 -3.582031 2.285156 -2.832031 2.921875 -2.21875 C 3.554688 -1.601562 4.3125 -1.296875 5.1875 -1.296875 C 6.070312 -1.296875 6.820312 -1.601562 7.4375 -2.21875 C 8.0625 -2.832031 8.375 -3.582031 8.375 -4.46875 C 8.375 -5.363281 8.0625 -6.113281 7.4375 -6.71875 C 6.820312 -7.332031 6.078125 -7.640625 5.203125 -7.640625 Z M 5.203125 -7.640625 "/></g></g></g><g fill="#8790a2" fill-opacity="1"><g transform="translate(161.894713, 155.456352)"><g><path d="M 8.9375 0 L 7.453125 0 L 2.6875 -6.421875 L 2.6875 0 L 1.171875 0 L 1.171875 -8.953125 L 2.65625 -8.953125 L 7.453125 -2.515625 L 7.453125 -8.953125 L 8.9375 -8.953125 Z M 8.9375 0 "/></g></g></g><g fill="#8790a2" fill-opacity="1"><g transform="translate(174.259772, 155.456352)"><g><path d="M 6.96875 -2.015625 L 2.4375 -2.015625 L 1.59375 0 L 0.015625 0 L 3.96875 -8.953125 L 5.515625 -8.953125 L 9.4375 0 L 7.8125 0 Z M 6.390625 -3.359375 L 4.703125 -7.34375 L 3 -3.359375 Z M 6.390625 -3.359375 "/></g></g></g><g fill="#8790a2" fill-opacity="1"><g transform="translate(185.933655, 155.456352)"><g><path d="M 6.859375 0 L 5.21875 -2.71875 C 5.132812 -2.707031 5 -2.703125 4.8125 -2.703125 L 2.6875 -2.703125 L 2.6875 0 L 1.171875 0 L 1.171875 -8.953125 L 4.8125 -8.953125 C 5.957031 -8.953125 6.84375 -8.6875 7.46875 -8.15625 C 8.101562 -7.625 8.421875 -6.875 8.421875 -5.90625 C 8.421875 -5.1875 8.257812 -4.578125 7.9375 -4.078125 C 7.613281 -3.585938 7.15625 -3.226562 6.5625 -3 L 8.578125 0 Z M 2.6875 -4.0625 L 4.8125 -4.0625 C 6.257812 -4.0625 6.984375 -4.660156 6.984375 -5.859375 C 6.984375 -7.015625 6.257812 -7.59375 4.8125 -7.59375 L 2.6875 -7.59375 Z M 2.6875 -4.0625 "/></g></g></g><g fill="#8790a2" fill-opacity="1"><g transform="translate(197.415562, 155.456352)"><g><path d="M 4.84375 -2.984375 L 4.84375 0 L 3.359375 0 L 3.359375 -2.9375 L 0.015625 -8.953125 L 1.53125 -8.953125 L 4.09375 -4.59375 L 6.609375 -8.953125 L 8.140625 -8.953125 Z M 4.84375 -2.984375 "/></g></g></g><g fill="#8790a2" fill-opacity="1"><g transform="translate(207.796727, 155.456352)"><g/></g></g><g fill="#8790a2" fill-opacity="1"><g transform="translate(213.326979, 155.456352)"><g><path d="M 6.96875 -2.015625 L 2.4375 -2.015625 L 1.59375 0 L 0.015625 0 L 3.96875 -8.953125 L 5.515625 -8.953125 L 9.4375 0 L 7.8125 0 Z M 6.390625 -3.359375 L 4.703125 -7.34375 L 3 -3.359375 Z M 6.390625 -3.359375 "/></g></g></g><g fill="#8790a2" fill-opacity="1"><g transform="translate(225.000862, 155.456352)"><g><path d="M 8.9375 0 L 7.453125 0 L 2.6875 -6.421875 L 2.6875 0 L 1.171875 0 L 1.171875 -8.953125 L 2.65625 -8.953125 L 7.453125 -2.515625 L 7.453125 -8.953125 L 8.9375 -8.953125 Z M 8.9375 0 "/></g></g></g><g fill="#8790a2" fill-opacity="1"><g transform="translate(237.365925, 155.456352)"><g><path d="M 1.171875 -8.953125 L 4.84375 -8.953125 C 6.1875 -8.953125 7.296875 -8.53125 8.171875 -7.6875 C 9.046875 -6.84375 9.484375 -5.769531 9.484375 -4.46875 C 9.484375 -3.175781 9.039062 -2.109375 8.15625 -1.265625 C 7.28125 -0.421875 6.164062 0 4.8125 0 L 1.171875 0 Z M 2.6875 -7.59375 L 2.6875 -1.359375 L 4.890625 -1.359375 C 5.765625 -1.359375 6.492188 -1.648438 7.078125 -2.234375 C 7.660156 -2.816406 7.953125 -3.5625 7.953125 -4.46875 C 7.953125 -5.375 7.648438 -6.117188 7.046875 -6.703125 C 6.453125 -7.296875 5.710938 -7.59375 4.828125 -7.59375 Z M 2.6875 -7.59375 "/></g></g></g><g fill="#8790a2" fill-opacity="1"><g transform="translate(249.51339, 155.456352)"><g/></g></g><g fill="#8790a2" fill-opacity="1"><g transform="translate(255.043641, 155.456352)"><g><path d="M 9.859375 -0.078125 L 10.453125 0.984375 C 9.710938 1.640625 8.90625 1.96875 8.03125 1.96875 C 7.46875 1.96875 6.9375 1.800781 6.4375 1.46875 C 5.945312 1.132812 5.523438 0.664062 5.171875 0.0625 C 3.828125 0.0507812 2.703125 -0.382812 1.796875 -1.25 C 0.890625 -2.125 0.4375 -3.203125 0.4375 -4.484375 C 0.4375 -5.765625 0.890625 -6.835938 1.796875 -7.703125 C 2.710938 -8.566406 3.835938 -9 5.171875 -9 C 6.515625 -9 7.644531 -8.566406 8.5625 -7.703125 C 9.476562 -6.835938 9.9375 -5.765625 9.9375 -4.484375 C 9.9375 -3.460938 9.640625 -2.5625 9.046875 -1.78125 C 8.453125 -1 7.671875 -0.460938 6.703125 -0.171875 C 7.210938 0.390625 7.710938 0.671875 8.203125 0.671875 C 8.671875 0.671875 9.222656 0.421875 9.859375 -0.078125 Z M 2.90625 -6.71875 C 2.28125 -6.113281 1.96875 -5.363281 1.96875 -4.46875 C 1.96875 -3.582031 2.285156 -2.832031 2.921875 -2.21875 C 3.554688 -1.601562 4.3125 -1.296875 5.1875 -1.296875 C 6.070312 -1.296875 6.820312 -1.601562 7.4375 -2.21875 C 8.0625 -2.832031 8.375 -3.582031 8.375 -4.46875 C 8.375 -5.363281 8.0625 -6.113281 7.4375 -6.71875 C 6.820312 -7.332031 6.078125 -7.640625 5.203125 -7.640625 C 4.304688 -7.640625 3.539062 -7.332031 2.90625 -6.71875 Z M 2.90625 -6.71875 "/></g></g></g><g fill="#8790a2" fill-opacity="1"><g transform="translate(267.831064, 155.456352)"><g><path d="M 8.796875 -8.953125 L 8.796875 -3.71875 C 8.796875 -2.539062 8.445312 -1.613281 7.75 -0.9375 C 7.0625 -0.269531 6.109375 0.0625 4.890625 0.0625 C 3.679688 0.0625 2.726562 -0.269531 2.03125 -0.9375 C 1.34375 -1.613281 1 -2.539062 1 -3.71875 L 1 -8.953125 L 2.515625 -8.953125 L 2.515625 -3.71875 C 2.515625 -2.957031 2.726562 -2.363281 3.15625 -1.9375 C 3.582031 -1.507812 4.164062 -1.296875 4.90625 -1.296875 C 5.644531 -1.296875 6.222656 -1.507812 6.640625 -1.9375 C 7.066406 -2.363281 7.28125 -2.957031 7.28125 -3.71875 L 7.28125 -8.953125 Z M 8.796875 -8.953125 "/></g></g></g><g fill="#8790a2" fill-opacity="1"><g transform="translate(279.837734, 155.456352)"><g><path d="M 2.6875 0 L 1.171875 0 L 1.171875 -8.953125 L 2.6875 -8.953125 Z M 2.6875 0 "/></g></g></g><g fill="#8790a2" fill-opacity="1"><g transform="translate(285.931147, 155.456352)"><g><path d="M 7.96875 -7.875 L 2.515625 -1.359375 L 8.03125 -1.359375 L 8.03125 0 L 0.46875 0 L 0.46875 -1.09375 L 5.9375 -7.59375 L 0.640625 -7.59375 L 0.640625 -8.953125 L 7.96875 -8.953125 Z M 7.96875 -7.875 "/></g></g></g><g fill="#1a4363" fill-opacity="1"><g transform="translate(34.14697, 130.758386)"><g><path d="M 6.140625 0 C 4.222656 0 3.265625 -0.957031 3.265625 -2.875 L 3.265625 -26.96875 C 3.265625 -28.894531 4.222656 -29.859375 6.140625 -29.859375 L 14.359375 -29.859375 C 19.347656 -29.859375 23.203125 -28.570312 25.921875 -26 C 28.648438 -23.425781 30.015625 -19.742188 30.015625 -14.953125 C 30.015625 -10.179688 28.648438 -6.492188 25.921875 -3.890625 C 23.203125 -1.296875 19.347656 0 14.359375 0 Z M 8.6875 -4.484375 L 14.015625 -4.484375 C 20.898438 -4.484375 24.34375 -7.972656 24.34375 -14.953125 C 24.34375 -21.890625 20.898438 -25.359375 14.015625 -25.359375 L 8.6875 -25.359375 Z M 8.6875 -4.484375 "/></g></g></g><g fill="#1a4363" fill-opacity="1"><g transform="translate(71.230554, 130.758386)"><g><path d="M 15.671875 0.421875 C 11.578125 0.421875 8.445312 -0.640625 6.28125 -2.765625 C 4.125 -4.898438 3.046875 -8.054688 3.046875 -12.234375 L 3.046875 -27.4375 C 3.046875 -29.269531 3.953125 -30.1875 5.765625 -30.1875 C 7.566406 -30.1875 8.46875 -29.269531 8.46875 -27.4375 L 8.46875 -12.28125 C 8.46875 -9.59375 9.082031 -7.578125 10.3125 -6.234375 C 11.539062 -4.898438 13.328125 -4.234375 15.671875 -4.234375 C 20.441406 -4.234375 22.828125 -6.914062 22.828125 -12.28125 L 22.828125 -27.4375 C 22.828125 -29.269531 23.726562 -30.1875 25.53125 -30.1875 C 27.3125 -30.1875 28.203125 -29.269531 28.203125 -27.4375 L 28.203125 -12.234375 C 28.203125 -8.054688 27.140625 -4.898438 25.015625 -2.765625 C 22.898438 -0.640625 19.785156 0.421875 15.671875 0.421875 Z M 15.671875 0.421875 "/></g></g></g><g fill="#1a4363" fill-opacity="1"><g transform="translate(107.298239, 130.758386)"><g><path d="M 16.640625 0.421875 C 13.765625 0.421875 11.242188 -0.210938 9.078125 -1.484375 C 6.921875 -2.753906 5.25 -4.539062 4.0625 -6.84375 C 2.875 -9.144531 2.28125 -11.847656 2.28125 -14.953125 C 2.28125 -18.078125 2.875 -20.78125 4.0625 -23.0625 C 5.25 -25.351562 6.914062 -27.128906 9.0625 -28.390625 C 11.207031 -29.648438 13.734375 -30.28125 16.640625 -30.28125 C 19.546875 -30.28125 22.070312 -29.648438 24.21875 -28.390625 C 26.363281 -27.128906 28.03125 -25.351562 29.21875 -23.0625 C 30.40625 -20.78125 31 -18.085938 31 -14.984375 C 31 -11.859375 30.40625 -9.144531 29.21875 -6.84375 C 28.03125 -4.539062 26.363281 -2.753906 24.21875 -1.484375 C 22.070312 -0.210938 19.546875 0.421875 16.640625 0.421875 Z M 16.640625 -4.234375 C 19.378906 -4.234375 21.507812 -5.175781 23.03125 -7.0625 C 24.5625 -8.957031 25.328125 -11.585938 25.328125 -14.953125 C 25.328125 -18.335938 24.570312 -20.960938 23.0625 -22.828125 C 21.550781 -24.691406 19.410156 -25.625 16.640625 -25.625 C 13.898438 -25.625 11.765625 -24.691406 10.234375 -22.828125 C 8.710938 -20.960938 7.953125 -18.335938 7.953125 -14.953125 C 7.953125 -11.585938 8.710938 -8.957031 10.234375 -7.0625 C 11.765625 -5.175781 13.898438 -4.234375 16.640625 -4.234375 Z M 16.640625 -4.234375 "/></g></g></g><g fill="#1a4363" fill-opacity="1"><g transform="translate(145.355407, 130.758386)"><g><path d="M 6.015625 0 C 4.179688 0 3.265625 -0.929688 3.265625 -2.796875 L 3.265625 -27.234375 C 3.265625 -29.066406 4.164062 -29.984375 5.96875 -29.984375 C 7.78125 -29.984375 8.6875 -29.066406 8.6875 -27.234375 L 8.6875 -4.609375 L 20.953125 -4.609375 C 22.535156 -4.609375 23.328125 -3.847656 23.328125 -2.328125 C 23.328125 -0.773438 22.535156 0 20.953125 0 Z M 6.015625 0 "/></g></g></g><g fill="#1a4363" fill-opacity="1"><g transform="translate(173.973057, 130.758386)"><g><path d="M 5.96875 0.34375 C 4.164062 0.34375 3.265625 -0.585938 3.265625 -2.453125 L 3.265625 -27.390625 C 3.265625 -29.253906 4.164062 -30.1875 5.96875 -30.1875 C 7.78125 -30.1875 8.6875 -29.253906 8.6875 -27.390625 L 8.6875 -2.453125 C 8.6875 -0.585938 7.78125 0.34375 5.96875 0.34375 Z M 5.96875 0.34375 "/></g></g></g><g fill="#1a4363" fill-opacity="1"><g transform="translate(190.73839, 130.758386)"><g><path d="M 5.796875 0.34375 C 4.109375 0.34375 3.265625 -0.53125 3.265625 -2.28125 L 3.265625 -27.484375 C 3.265625 -28.359375 3.484375 -29.023438 3.921875 -29.484375 C 4.359375 -29.953125 4.925781 -30.1875 5.625 -30.1875 C 6.28125 -30.1875 6.769531 -30.066406 7.09375 -29.828125 C 7.414062 -29.585938 7.800781 -29.1875 8.25 -28.625 L 23.375 -9.015625 L 23.375 -27.609375 C 23.375 -29.328125 24.222656 -30.1875 25.921875 -30.1875 C 27.578125 -30.1875 28.40625 -29.328125 28.40625 -27.609375 L 28.40625 -2.203125 C 28.40625 -1.410156 28.207031 -0.785156 27.8125 -0.328125 C 27.425781 0.117188 26.890625 0.34375 26.203125 0.34375 C 25.554688 0.34375 25.039062 0.21875 24.65625 -0.03125 C 24.28125 -0.289062 23.867188 -0.703125 23.421875 -1.265625 L 8.296875 -20.921875 L 8.296875 -2.28125 C 8.296875 -0.53125 7.460938 0.34375 5.796875 0.34375 Z M 5.796875 0.34375 "/></g></g></g><g fill="#1a4363" fill-opacity="1"><g transform="translate(227.229358, 130.758386)"><g><path d="M 17.609375 0.421875 C 14.304688 0.421875 11.519531 -0.195312 9.25 -1.4375 C 6.976562 -2.675781 5.25 -4.4375 4.0625 -6.71875 C 2.875 -9.007812 2.28125 -11.722656 2.28125 -14.859375 C 2.28125 -18.023438 2.882812 -20.753906 4.09375 -23.046875 C 5.3125 -25.347656 7.0625 -27.128906 9.34375 -28.390625 C 11.632812 -29.648438 14.378906 -30.28125 17.578125 -30.28125 C 19.148438 -30.28125 20.734375 -30.085938 22.328125 -29.703125 C 23.929688 -29.316406 25.4375 -28.675781 26.84375 -27.78125 C 27.46875 -27.414062 27.828125 -26.925781 27.921875 -26.3125 C 28.023438 -25.707031 27.9375 -25.132812 27.65625 -24.59375 C 27.375 -24.0625 26.945312 -23.6875 26.375 -23.46875 C 25.8125 -23.257812 25.191406 -23.351562 24.515625 -23.75 C 23.441406 -24.375 22.351562 -24.828125 21.25 -25.109375 C 20.15625 -25.390625 18.929688 -25.53125 17.578125 -25.53125 C 14.410156 -25.53125 12.015625 -24.613281 10.390625 -22.78125 C 8.765625 -20.945312 7.953125 -18.304688 7.953125 -14.859375 C 7.953125 -11.390625 8.785156 -8.75 10.453125 -6.9375 C 12.117188 -5.132812 14.59375 -4.234375 17.875 -4.234375 C 18.800781 -4.234375 19.75 -4.3125 20.71875 -4.46875 C 21.695312 -4.625 22.664062 -4.859375 23.625 -5.171875 L 23.625 -12.109375 L 18.96875 -12.109375 C 17.5 -12.109375 16.765625 -12.785156 16.765625 -14.140625 C 16.765625 -15.472656 17.5 -16.140625 18.96875 -16.140625 L 25.953125 -16.140625 C 27.421875 -16.140625 28.15625 -15.40625 28.15625 -13.9375 L 28.15625 -3.640625 C 28.15625 -2.335938 27.648438 -1.503906 26.640625 -1.140625 C 25.390625 -0.691406 23.957031 -0.316406 22.34375 -0.015625 C 20.738281 0.273438 19.160156 0.421875 17.609375 0.421875 Z M 17.609375 0.421875 "/></g></g></g><g fill="#1a4363" fill-opacity="1"><g transform="translate(263.212376, 130.758386)"><g><path d="M 13.546875 0.421875 C 11.660156 0.421875 9.816406 0.210938 8.015625 -0.203125 C 6.222656 -0.628906 4.664062 -1.269531 3.34375 -2.125 C 2.695312 -2.539062 2.300781 -3.054688 2.15625 -3.671875 C 2.019531 -4.296875 2.070312 -4.882812 2.3125 -5.4375 C 2.550781 -5.988281 2.929688 -6.367188 3.453125 -6.578125 C 3.972656 -6.796875 4.570312 -6.691406 5.25 -6.265625 C 6.488281 -5.535156 7.800781 -5 9.1875 -4.65625 C 10.570312 -4.320312 12.023438 -4.15625 13.546875 -4.15625 C 15.773438 -4.15625 17.394531 -4.523438 18.40625 -5.265625 C 19.425781 -6.015625 19.9375 -6.984375 19.9375 -8.171875 C 19.9375 -9.160156 19.578125 -9.9375 18.859375 -10.5 C 18.140625 -11.0625 16.90625 -11.53125 15.15625 -11.90625 L 10.5 -12.875 C 5.195312 -14 2.546875 -16.722656 2.546875 -21.046875 C 2.546875 -22.910156 3.035156 -24.53125 4.015625 -25.90625 C 5.003906 -27.289062 6.375 -28.363281 8.125 -29.125 C 9.875 -29.894531 11.894531 -30.28125 14.1875 -30.28125 C 15.875 -30.28125 17.476562 -30.066406 19 -29.640625 C 20.53125 -29.210938 21.90625 -28.59375 23.125 -27.78125 C 23.6875 -27.382812 24.023438 -26.894531 24.140625 -26.3125 C 24.253906 -25.738281 24.179688 -25.203125 23.921875 -24.703125 C 23.671875 -24.210938 23.269531 -23.875 22.71875 -23.6875 C 22.164062 -23.507812 21.523438 -23.628906 20.796875 -24.046875 C 19.742188 -24.640625 18.679688 -25.0625 17.609375 -25.3125 C 16.535156 -25.570312 15.378906 -25.703125 14.140625 -25.703125 C 12.191406 -25.703125 10.664062 -25.289062 9.5625 -24.46875 C 8.46875 -23.65625 7.921875 -22.582031 7.921875 -21.25 C 7.921875 -20.238281 8.257812 -19.425781 8.9375 -18.8125 C 9.613281 -18.207031 10.769531 -17.738281 12.40625 -17.40625 L 17.015625 -16.421875 C 19.816406 -15.835938 21.898438 -14.910156 23.265625 -13.640625 C 24.640625 -12.367188 25.328125 -10.671875 25.328125 -8.546875 C 25.328125 -6.773438 24.84375 -5.210938 23.875 -3.859375 C 22.914062 -2.503906 21.554688 -1.453125 19.796875 -0.703125 C 18.035156 0.046875 15.953125 0.421875 13.546875 0.421875 Z M 13.546875 0.421875 "/></g></g></g><g fill="#1a4363" fill-opacity="1"><g transform="translate(294.750776, 130.758386)"><g><path d="M 16.640625 0.421875 C 13.765625 0.421875 11.242188 -0.210938 9.078125 -1.484375 C 6.921875 -2.753906 5.25 -4.539062 4.0625 -6.84375 C 2.875 -9.144531 2.28125 -11.847656 2.28125 -14.953125 C 2.28125 -18.078125 2.875 -20.78125 4.0625 -23.0625 C 5.25 -25.351562 6.914062 -27.128906 9.0625 -28.390625 C 11.207031 -29.648438 13.734375 -30.28125 16.640625 -30.28125 C 19.546875 -30.28125 22.070312 -29.648438 24.21875 -28.390625 C 26.363281 -27.128906 28.03125 -25.351562 29.21875 -23.0625 C 30.40625 -20.78125 31 -18.085938 31 -14.984375 C 31 -11.859375 30.40625 -9.144531 29.21875 -6.84375 C 28.03125 -4.539062 26.363281 -2.753906 24.21875 -1.484375 C 22.070312 -0.210938 19.546875 0.421875 16.640625 0.421875 Z M 16.640625 -4.234375 C 19.378906 -4.234375 21.507812 -5.175781 23.03125 -7.0625 C 24.5625 -8.957031 25.328125 -11.585938 25.328125 -14.953125 C 25.328125 -18.335938 24.570312 -20.960938 23.0625 -22.828125 C 21.550781 -24.691406 19.410156 -25.625 16.640625 -25.625 C 13.898438 -25.625 11.765625 -24.691406 10.234375 -22.828125 C 8.710938 -20.960938 7.953125 -18.335938 7.953125 -14.953125 C 7.953125 -11.585938 8.710938 -8.957031 10.234375 -7.0625 C 11.765625 -5.175781 13.898438 -4.234375 16.640625 -4.234375 Z M 16.640625 -4.234375 "/></g></g></g><g fill="#1a4363" fill-opacity="1"><g transform="translate(332.807945, 130.758386)"><g><path d="M 5.796875 0.34375 C 4.109375 0.34375 3.265625 -0.53125 3.265625 -2.28125 L 3.265625 -27.484375 C 3.265625 -28.359375 3.484375 -29.023438 3.921875 -29.484375 C 4.359375 -29.953125 4.925781 -30.1875 5.625 -30.1875 C 6.28125 -30.1875 6.769531 -30.066406 7.09375 -29.828125 C 7.414062 -29.585938 7.800781 -29.1875 8.25 -28.625 L 23.375 -9.015625 L 23.375 -27.609375 C 23.375 -29.328125 24.222656 -30.1875 25.921875 -30.1875 C 27.578125 -30.1875 28.40625 -29.328125 28.40625 -27.609375 L 28.40625 -2.203125 C 28.40625 -1.410156 28.207031 -0.785156 27.8125 -0.328125 C 27.425781 0.117188 26.890625 0.34375 26.203125 0.34375 C 25.554688 0.34375 25.039062 0.21875 24.65625 -0.03125 C 24.28125 -0.289062 23.867188 -0.703125 23.421875 -1.265625 L 8.296875 -20.921875 L 8.296875 -2.28125 C 8.296875 -0.53125 7.460938 0.34375 5.796875 0.34375 Z M 5.796875 0.34375 "/></g></g></g><g clip-path="url(#b36e49e38b)"><path fill="#539ddb" d="M 212.171875 6.816406 L 149.847656 6.816406 C 144.140625 6.816406 139.464844 11.492188 139.464844 17.207031 L 139.464844 53.5625 C 139.464844 59.277344 144.140625 63.945312 149.847656 63.945312 L 155.042969 63.945312 L 155.042969 79.53125 L 175.820312 63.945312 L 186.210938 63.945312 " fill-opacity="1" fill-rule="nonzero"/><path fill="#539ddb" d="M 212.171875 6.816406 L 149.847656 6.816406 C 144.140625 6.816406 139.464844 11.492188 139.464844 17.207031 L 139.464844 53.5625 C 139.464844 59.277344 144.140625 63.945312 149.847656 63.945312 L 155.042969 63.945312 L 155.042969 79.53125 L 175.820312 63.945312 L 186.210938 63.945312 " fill-opacity="1" fill-rule="nonzero"/></g><path fill="#3e66ba" d="M 186.730469 63.945312 L 187.769531 63.945312 L 208.027344 17.207031 L 212.171875 6.816406 L 200.230469 6.816406 L 179.976562 50.964844 C 179.457031 52.523438 177.898438 53.5625 176.339844 53.5625 C 174.78125 54.082031 173.738281 54.601562 172.699219 55.121094 L 155.042969 69.140625 L 155.042969 79.53125 L 175.820312 63.945312 L 186.730469 63.945312 " fill-opacity="1" fill-rule="nonzero"/><g clip-path="url(#c294a8a745)"><path fill="#eaeff9" d="M 208.027344 17.207031 L 248.527344 17.207031 C 254.246094 17.207031 258.921875 21.882812 258.921875 27.589844 L 258.921875 63.945312 C 258.921875 69.660156 254.246094 74.335938 248.527344 74.335938 L 243.34375 74.335938 L 243.34375 89.914062 L 222.566406 74.335938 L 186.210938 74.335938 C 185.171875 74.335938 184.132812 74.335938 183.613281 73.816406 " fill-opacity="1" fill-rule="nonzero"/></g><g clip-path="url(#d32fa797fb)"><path fill="#cce2ef" d="M 218.929688 63.945312 L 205.9375 63.945312 C 202.3125 63.945312 199.710938 60.316406 201.269531 56.679688 L 218.410156 17.207031 L 208.027344 17.207031 L 187.769531 63.945312 L 183.613281 73.816406 C 184.652344 73.816406 185.691406 74.335938 186.210938 74.335938 L 222.566406 74.335938 L 243.34375 89.914062 L 243.34375 79.53125 L 225.164062 66.023438 C 223.605469 64.464844 221.527344 63.945312 218.929688 63.945312 " fill-opacity="1" fill-rule="nonzero"/></g><path stroke-linecap="round" transform="matrix(0.271495, 0, 0, -0.271486, 139.463789, 89.916263)" fill="none" stroke-linejoin="round" d="M 277.388575 325.20007 L 153.048178 38.252442 " stroke="#1a4363" stroke-width="10" stroke-opacity="1" stroke-miterlimit="10"/><path fill="#1a4363" d="M 232.949219 61.34375 C 231.390625 61.34375 230.351562 60.316406 230.351562 58.757812 L 230.351562 37.984375 C 230.351562 36.421875 229.3125 35.382812 227.761719 35.382812 L 217.371094 35.382812 C 215.8125 35.382812 214.773438 36.421875 214.773438 37.984375 L 214.773438 58.757812 C 214.773438 60.316406 213.734375 61.34375 212.171875 61.34375 C 210.625 61.34375 209.585938 60.316406 209.585938 58.757812 L 209.585938 37.984375 C 209.585938 33.824219 213.214844 30.1875 217.371094 30.1875 L 227.761719 30.1875 C 231.910156 30.1875 235.546875 33.824219 235.546875 37.984375 L 235.546875 58.757812 C 235.546875 60.316406 234.507812 61.34375 232.949219 61.34375 " fill-opacity="1" fill-rule="nonzero"/><path fill="#1a4363" d="M 186.210938 24.992188 L 160.238281 24.992188 C 158.679688 24.992188 157.640625 23.953125 157.640625 22.402344 C 157.640625 20.84375 158.679688 19.804688 160.238281 19.804688 L 186.210938 19.804688 C 187.769531 19.804688 188.800781 20.84375 188.800781 22.402344 C 188.800781 23.953125 187.769531 24.992188 186.210938 24.992188 Z M 230.351562 50.964844 L 214.773438 50.964844 C 213.214844 50.964844 212.171875 49.921875 212.171875 48.363281 C 212.171875 46.804688 213.214844 45.765625 214.773438 45.765625 L 230.351562 45.765625 C 231.910156 45.765625 232.949219 46.804688 232.949219 48.363281 C 232.949219 49.921875 231.910156 50.964844 230.351562 50.964844 " fill-opacity="1" fill-rule="nonzero"/><path fill="#1a4363" d="M 185.691406 56.160156 C 185.171875 56.160156 184.652344 56.160156 184.652344 55.640625 C 172.179688 49.402344 163.878906 36.421875 163.359375 22.921875 C 163.359375 21.363281 164.398438 20.324219 165.957031 20.324219 C 167.515625 20.324219 168.554688 21.363281 168.554688 22.921875 C 169.074219 34.863281 176.339844 45.765625 187.25 51.484375 C 188.28125 52.003906 188.800781 53.5625 188.28125 55.121094 C 187.25 55.640625 186.210938 56.160156 185.691406 56.160156 " fill-opacity="1" fill-rule="nonzero"/><path fill="#1a4363" d="M 173.21875 24.992188 C 171.660156 24.992188 170.621094 23.953125 170.621094 22.402344 L 170.621094 17.207031 C 170.621094 15.648438 171.660156 14.609375 173.21875 14.609375 C 174.78125 14.609375 175.820312 15.648438 175.820312 17.207031 L 175.820312 22.402344 C 175.820312 23.953125 174.78125 24.992188 173.21875 24.992188 Z M 165.4375 52.003906 C 164.398438 52.003906 163.878906 51.484375 163.359375 50.964844 C 162.316406 49.921875 162.835938 48.363281 163.878906 47.324219 C 172.179688 41.621094 177.378906 32.785156 177.898438 22.402344 C 177.898438 20.84375 178.9375 19.804688 180.496094 19.804688 C 182.054688 19.804688 183.09375 21.363281 183.09375 22.402344 C 182.574219 34.34375 176.339844 45.246094 166.476562 51.484375 C 166.476562 52.003906 165.957031 52.003906 165.4375 52.003906 " fill-opacity="1" fill-rule="nonzero"/></svg>